<svg xmlns="http://www.w3.org/2000/svg" viewBox="0 0 40 40" fill="none">
  <rect width="40" height="40" fill="#111111"/>
  <g stroke="#ffffff" fill="none" stroke-linecap="round" stroke-linejoin="miter">
    <path d="M7 30 C6.5 26 5.5 23 6 20 C5 22 4.5 25 5 28" stroke-width="0.7"/>
    <path d="M6 20 V30" stroke-width="0.7"/>
    <path d="M33 30 C33.5 26 34.5 23 34 20 C35 22 35.5 25 35 28" stroke-width="0.7"/>
    <path d="M34 20 V30" stroke-width="0.7"/>
    <path d="M10 31 H30" stroke-width="0.9"/>
    <rect x="11" y="27" width="18" height="4" stroke-width="0.85"/>
    <path d="M13 27 V31 M15 27 V31 M17 27 V31 M19 27 V31 M21 27 V31 M23 27 V31 M25 27 V31 M27 27 V31" stroke-width="0.55"/>
    <path d="M11 16 L20 10 L29 16 V27 H11 V16 Z" stroke-width="1.1"/>
    <path d="M18 11.5 V8 H22 V11.5" stroke-width="0.85"/>
    <path d="M18 8 L20 6.2 L22 8" stroke-width="0.85"/>
    <path d="M20 10 V27" stroke-width="0.9"/>
    <rect x="16.2" y="19" width="3.8" height="8" stroke-width="0.75"/>
    <rect x="20" y="19" width="3.8" height="8" stroke-width="0.75"/>
    <path d="M11 19 H16.2 M23.8 19 H29" stroke-width="0.7"/>
    <path d="M14.5 16 V27 M25.5 16 V27" stroke-width="0.65"/>
  </g>
</svg>
